<svg xmlns="http://www.w3.org/2000/svg" viewBox="0 0 340 340"><g data-name="Layer 29"><path d="M295.094 120.483a11.956 11.956 0 0 1 11.955 11.956v12.288a12.193 12.193 0 0 1-5.634 10.428c-4.034 2.487-10.741 4.05-21.638.932a1.73 1.73 0 0 1-.7-2.936c2.255-2.031 5.084-5.632 4.391-10.537a45.723 45.723 0 0 1-.29-11.125 11.972 11.972 0 0 1 11.916-11.006z" style="fill:#ffc676"/><path d="M66.582 229.353s-20.584-31.059 0-95.515c0 0 9.792-39.71 35.257-37.318 0 0 14.345 28.784 15.784 53.486 0 0 2.878 62.762-17.267 84.622 0 0-19.104 13.637-33.774-5.275z" style="fill:#595975"/><path d="M113 23.5a43 43 0 0 0-12.811-1.419 8.247 8.247 0 0 0-7.794 7.3C90.667 45.262 80.967 90.6 26.876 131.991a8.263 8.263 0 0 0-2.208 10.641 32.392 32.392 0 0 0 14.662 13.18S96.949 90.792 113 23.5z" style="fill:#b8c7dd"/><path d="M110.8 13.959s-4.574 34.073-35.1 80.46Q70.493 117.6 49.592 128.9c-7.414 8.608-15.712 17.422-25 26.336a46.741 46.741 0 0 0 32.2 21.591 9.38 9.38 0 0 0 10.735-7.875 157.421 157.421 0 0 1 3.434-16.252c1.147-15.669 7.879-30.606 18.306-45.057a223.538 223.538 0 0 1 49.6-60.45 9.425 9.425 0 0 0 2.172-11.577C137.076 28.192 128.4 17.28 110.8 13.959z" style="fill:#fff"/><path d="M70.961 152.7a196.721 196.721 0 0 1 18.306-45.057l-14.915-11.19A337.064 337.064 0 0 1 49.588 128.9c4.497 8.441 11.278 17.408 21.373 23.8z" style="fill:#b8c7dd"/><path d="m55.654 108.89 13.124 13.319a15.687 15.687 0 0 0 11.174 4.677 15.689 15.689 0 0 1 11.442 4.955l17.5 18.654s2.367-37.123-7.052-53.975L83.605 79.1a12.4 12.4 0 0 0-17.011-.128 89.855 89.855 0 0 0-12.208 14 12.455 12.455 0 0 0 1.268 15.918z" style="fill:#ffd4ca"/><path d="M261.254 176.488s56.593 26.454 55.1 157.471H151s5.949-70.127-42.545-86.773a27.929 27.929 0 0 0-14.677-1c-8.051 1.657-23.235 2.071-27.2-16.83 0 0 7.294 10.335 22.1.5 21.989-14.613 21.105-93.356 13.16-133.33 17.031 7.187 31.1 21.584 41.453 45.011a65.824 65.824 0 0 0 11.337 17.552c2.762 3.055 5.02 5.32 5.02 5.32s35.082 27.991 101.606 12.079z" style="fill:#797996"/><path style="fill:#cbd5ea" d="m245.36 183.609-20.09-17.006h-22.309l-20.09 17.006 31.181 53.928 31.308-53.928z"/><path d="m206.345 188.748-3.384 30.6 10.639 15.28 10.636-15.277-2.94-26.594c-5.16-7.391-14.951-4.009-14.951-4.009z" style="fill:#ff6d8d"/><path d="M206.345 188.748a18.458 18.458 0 0 1 14.949 4.009l-2.261-20.447h-10.87z" style="fill:#e5486e"/><path d="m228.039 160.1 18.25 13.86-9.125 18.918L213.6 174.54s4.968-9.999 14.439-14.44zM199.156 160.1 177.9 170.357l12.132 22.52L213.6 174.54s-4.973-9.999-14.444-14.44z" style="fill:#fff"/><path style="fill:#ffd4ca" d="M199.156 152.822v7.277l14.442 14.441 14.441-14.441v-7.022l-28.883-.255z"/><path d="m246.289 173.959-32.11 54.1-35.641-60.53a10.441 10.441 0 0 0-8.054-5.107 20.867 20.867 0 0 0-10.835 1.978l50.909 82.527a4.255 4.255 0 0 0 7.242 0l43.454-70.442s-7.708-4.175-14.965-2.526z" style="fill:#fff"/><path d="M228.039 139.153h-28.883v13.669a49.712 49.712 0 0 0 28.883.255z" style="fill:#f99c9c"/><path d="M292.056 65.631a247.292 247.292 0 0 0-67.878-53.587 21.227 21.227 0 0 0-20 0A247.3 247.3 0 0 0 136.3 65.631a11.337 11.337 0 0 0 .38 15.393c34.668 35.586 77.5 42.81 77.5 42.81s42.829-7.224 77.5-42.81a11.337 11.337 0 0 0 .376-15.393z" style="fill:#797996"/><path d="M195.251 79.928s-16.706 0-24.6 6.855c0 0-2.5 22.641 12.3 29.233z" style="fill:#ffc676"/><path d="M184.723 118.01s-2.1-6.892-6.535-10.943c-5.124-4.676-13.312-.936-13.412 6-.047 3.266.909 7.375 4.213 12.014 8.309 11.668 18.032 3.182 18.032 3.182z" style="fill:#f99c9c"/><path d="M233.107 79.928s16.706 0 24.6 6.855c0 0 2.5 22.641-12.3 29.233z" style="fill:#ffc676"/><path d="M243.635 118.01s2.095-6.892 6.535-10.943c5.124-4.676 13.312-.936 13.412 6 .047 3.266-.909 7.375-4.213 12.014-8.309 11.668-18.032 3.182-18.032 3.182z" style="fill:#f99c9c"/><path d="M233.107 79.928a104.352 104.352 0 0 0-37.856 0s-17.069 21.631-12 44.953 30.927 21.463 30.927 21.463 25.856 1.859 30.927-21.463-11.998-44.953-11.998-44.953z" style="fill:#ffd4ca"/><path d="M256.875 71.784a11.935 11.935 0 0 0-3.868-8.187 61.883 61.883 0 0 0-21.534-12.512 53.328 53.328 0 0 0-34.589 0A61.879 61.879 0 0 0 175.351 63.6a11.931 11.931 0 0 0-3.868 8.187l-.832 15s14.772-6.855 43.528-6.855 43.528 6.855 43.528 6.855z" style="fill:#595975"/><path d="M202.784 112.049a3.5 3.5 0 0 1-3.5-3.5V105.3a3.5 3.5 0 0 1 7 0v3.247a3.5 3.5 0 0 1-3.5 3.502zM225.574 112.049a3.5 3.5 0 0 1-3.5-3.5V105.3a3.5 3.5 0 0 1 7 0v3.247a3.5 3.5 0 0 1-3.5 3.502zM214.132 134.43c-8.416 0-12.458-3.776-13.805-5.4a3.5 3.5 0 1 1 5.388-4.47c.4.48 2.671 2.869 8.417 2.869s8.018-2.389 8.416-2.868a3.5 3.5 0 1 1 5.387 4.47c-1.346 1.624-5.387 5.399-13.803 5.399z" style="fill:#f99c9c"/><path d="M262.818 173.355c-.9-.474-8.1-4.093-15.626-3.1l-15.653-11.888v-11.742a28.9 28.9 0 0 0 13.827-12.436 15 15 0 0 0 3.957.548c3.892 0 8.628-1.632 12.9-7.625 3.294-4.624 4.93-9.367 4.862-14.094a11.677 11.677 0 0 0-1.925-6.31 154.956 154.956 0 0 0 26.227-20.464v30.141a15.583 15.583 0 0 0-12.4 13.913 49.028 49.028 0 0 0 .311 11.9c.764 5.405-4.964 8.767-5.191 8.9a3.5 3.5 0 0 0 .566 6.361 48.052 48.052 0 0 0 15.515 2.979 23.13 23.13 0 0 0 12.365-3.2 15.768 15.768 0 0 0 7.3-13.409v-12.292a15.469 15.469 0 0 0-11.465-14.914V72.949a3.51 3.51 0 0 0-.052-.516 14.79 14.79 0 0 0-3.645-9.112 250.672 250.672 0 0 0-68.867-54.367 24.735 24.735 0 0 0-23.291 0 250.625 250.625 0 0 0-68.861 54.367 14.912 14.912 0 0 0 .5 20.146 154.2 154.2 0 0 0 29.028 23.24 11.68 11.68 0 0 0-1.927 6.311c-.068 4.726 1.568 9.468 4.862 14.094 4.26 5.981 8.971 7.634 12.878 7.634a14.983 14.983 0 0 0 3.987-.556 28.636 28.636 0 0 0 12.655 11.892V157.9l-14.636 7.063a13.947 13.947 0 0 0-10.224-6.025 24.808 24.808 0 0 0-10.292 1.322 177.763 177.763 0 0 1-3.28-3.525 62.209 62.209 0 0 1-10.733-16.621c-10.173-23.017-24.528-38.66-42.66-46.531l-1.087-1.038a226.084 226.084 0 0 1 38.417-42.707 12.869 12.869 0 0 0 2.968-15.871c-3.833-7.178-13.175-19.768-32.677-23.447a3.5 3.5 0 0 0-4.117 2.97c-.009.069-.278 1.924-1.041 5.268a42.049 42.049 0 0 0-6.286-.176A11.7 11.7 0 0 0 88.918 29c-.865 7.946-3.88 23.939-14.165 43.179a15.8 15.8 0 0 0-10.545 4.234 92.982 92.982 0 0 0-12.686 14.55 16 16 0 0 0-1.607 15.558 204.755 204.755 0 0 1-25.166 22.691 11.817 11.817 0 0 0-3.126 15.149 33.034 33.034 0 0 0 3.717 5.256c-1.053 1.034-2.1 2.071-3.169 3.1a3.5 3.5 0 0 0-.654 4.191A49.958 49.958 0 0 0 54.138 179.9c-1.614 30.848 7.21 47.526 9.163 50.8 3.451 15.162 15.059 22.23 31.182 18.91a24.425 24.425 0 0 1 12.835.885c45.318 15.557 40.25 82.494 40.194 83.169-.009.1-.013.2-.013.294h7.011a136.375 136.375 0 0 0-3.189-37.939c-6.274-26.9-18.636-45.082-43.881-52.8a26.478 26.478 0 0 0 7.411-8.063 3.5 3.5 0 1 0-6.059-3.507c-5.449 9.412-19.172 11.617-19.371 11.647-.025 0-.047.014-.072.018-7.132.69-12.421-1.317-15.8-6.017 4.326.833 10.041.13 17.063-4.536 22.947-15.25 22.57-88.944 15.882-130.093 14.057 7.791 25.087 21.033 33.591 40.274a69.185 69.185 0 0 0 11.943 18.485 174.709 174.709 0 0 0 4.847 5.15l54.325 88.06a3.5 3.5 0 0 0 5.957 0l45.269-73.385c4.619 3.069 14.552 10.978 24.315 27.268 12.33 20.573 26.87 59.028 26.116 125.439h7c.772-68.482-14.528-108.321-27.5-129.684-13.979-23.017-28.245-30.294-29.539-30.92zm40.03-41.818v12.288a8.726 8.726 0 0 1-3.972 7.45c-3.8 2.341-9.253 2.765-15.976 1.272a14.426 14.426 0 0 0 3.327-11.324 41.933 41.933 0 0 1-.267-10.352 8.457 8.457 0 0 1 16.888.666zM113.6 18.182a37.863 37.863 0 0 1 24.35 19.082 5.908 5.908 0 0 1-1.376 7.283 233.334 233.334 0 0 0-38.962 43.1l-8.622-8.235c13.843-24.386 22.777-52.222 24.61-61.23zM95.877 29.76a4.725 4.725 0 0 1 4.5-4.187 33.686 33.686 0 0 1 4.154.051c-3.05 10.794-9.155 28.1-20.9 49.063a15.79 15.79 0 0 0-1.76-.965C91.964 54.218 94.982 37.969 95.877 29.76zM57.25 94.987a85.906 85.906 0 0 1 11.731-13.451 8.9 8.9 0 0 1 12.206.1l17.427 16.646a293.681 293.681 0 0 1 4.59 41.035l-9.257-9.87a19.259 19.259 0 0 0-14-6.061 12.262 12.262 0 0 1-8.681-3.633l-13.123-13.32a8.958 8.958 0 0 1-.893-11.446zm-29.539 45.918A4.789 4.789 0 0 1 29 134.771 212.735 212.735 0 0 0 54.1 112.3l2.522 2.559a365.038 365.038 0 0 1-26.3 29.791 26.026 26.026 0 0 1-2.611-3.745zm29.649 32.469A43.816 43.816 0 0 1 29.1 155.75a377.782 377.782 0 0 0 32.47-35.87l4.714 4.785a19.282 19.282 0 0 0 8.63 5.019 178.553 178.553 0 0 0-10.84 38.74 5.91 5.91 0 0 1-2.379 3.91 5.759 5.759 0 0 1-4.335 1.04zm29.382 53.561c-11.294 7.508-16.62 1.29-17.275.433-.689-1.116-9.948-16.79-8.333-47.24a12.92 12.92 0 0 0 9.859-10.643 172.766 172.766 0 0 1 11.112-38.893 12.225 12.225 0 0 1 6.736 3.644l14.685 15.656c.522 34.717-4.304 68.748-16.784 77.043zm154.944-52.076-6.943 11.7-15.867-12.345 9.478-9.479zm-10.545 17.766-5.345 9.006-1.592-14.4zm-17.541-13.65 2.9 2.257 3.361 30.4-5.669 9.552-6.66-11.312 3.166-28.64zm-10.941-20.326v-9.987c6.989 1.834 18.027 1.152 21.882.282v9.705L213.6 169.59zm51.685-69.429a40.327 40.327 0 0 1-1.551 12.588 11.372 11.372 0 0 0-4.651 2.392 72.059 72.059 0 0 0-7.17-18.461 86.675 86.675 0 0 1 13.372 3.481zm-40.165-12.792c-19.651 0-32.952 3.121-39.74 5.251l.538-9.7a8.492 8.492 0 0 1 2.724-5.788A58.04 58.04 0 0 1 198.02 54.4a50.017 50.017 0 0 1 32.317 0 58.049 58.049 0 0 1 20.32 11.794 8.491 8.491 0 0 1 2.723 5.788l.538 9.7c-6.787-2.133-20.088-5.254-39.739-5.254zm42.339 46.623c-2.574 3.614-5.371 5.127-8.495 4.584.183-.653 1.639-10.148 1.442-14.046a17.06 17.06 0 0 1 3.064-3.936 4.3 4.3 0 0 1 4.724-.78 4.585 4.585 0 0 1 2.828 4.244c.046 3.207-1.152 6.549-3.563 9.934zM139.189 78.582a7.876 7.876 0 0 1-.257-10.642 243.435 243.435 0 0 1 66.893-52.808 17.737 17.737 0 0 1 16.707 0 243.483 243.483 0 0 1 66.894 52.808 7.877 7.877 0 0 1-.257 10.642 147.549 147.549 0 0 1-29.062 23.011 48.986 48.986 0 0 0 1.093-15.066l-.828-14.936A15.541 15.541 0 0 0 255.358 61a65.029 65.029 0 0 0-22.748-13.225 57.053 57.053 0 0 0-36.863 0A65.02 65.02 0 0 0 173 61a15.536 15.536 0 0 0-5.011 10.586l-.831 14.959a49.048 49.048 0 0 0 1.092 15.045 147.5 147.5 0 0 1-29.061-23.008zm32.65 44.469c-2.41-3.386-3.609-6.728-3.563-9.933a4.586 4.586 0 0 1 2.829-4.245 4.3 4.3 0 0 1 4.723.779 17.078 17.078 0 0 1 3.06 3.923c-.2 3.9 1.266 13.405 1.449 14.058-3.121.545-5.921-.965-8.498-4.582zm8.368-18.858a11.36 11.36 0 0 0-4.643-2.386 40.321 40.321 0 0 1-1.55-12.587 86.789 86.789 0 0 1 13.366-3.48 71.837 71.837 0 0 0-7.173 18.453zm6.465 19.945c-3.955-17.249 5.8-33.89 9.693-39.734a163.068 163.068 0 0 1 35.629 0c3.795 5.7 13.525 22.414 9.692 39.734-5.179 23.402-49.386 24.524-55.014 0zm11.768 40.193 9.88 9.881-14.942 11.625-8.741-14.845zm4.552 22.9L201.6 199.8l-4.642-7.884zm11.187 58.906-49.27-79.867a17.216 17.216 0 0 1 5.261-.355 6.954 6.954 0 0 1 5.353 3.4l35.64 60.531a3.5 3.5 0 0 0 3.01 1.725h.006a3.5 3.5 0 0 0 3.01-1.714l31.281-52.706a19.1 19.1 0 0 1 7.646 1.009z" style="fill:#3c3c4f"/><path d="M271.437 260.6a3.5 3.5 0 0 0-2.785 4.092c.063.335 6.36 33.857 6.36 66.944v2.32h7v-2.32c0-33.738-6.419-67.91-6.483-68.251a3.5 3.5 0 0 0-4.092-2.785z" style="fill:#3c3c4f"/></g></svg>