<svg xmlns="http://www.w3.org/2000/svg" viewBox="0 0 2048 2048" style="enable-background:new 0 0 2048 2048" xml:space="preserve"><path style="fill:#bbecff" d="M576.257 1390.887C399.388 1390.887 256 1247.5 256 1070.617c0-88.441 35.854-168.502 93.797-226.459 57.957-57.957 138.032-93.797 226.459-93.797h18.995c0-236.797 191.951-428.748 428.748-428.748s428.748 191.951 428.748 428.748h18.995c176.869 0 320.257 143.374 320.257 320.257 0 88.441-35.854 168.502-93.797 226.473-57.957 57.943-138.032 93.797-226.459 93.797H576.257z"/><path style="fill:#72b8ce" d="M1024 1100.875c13.682 0 24.774 11.092 24.774 24.774v575.965c0 13.682-11.092 24.774-24.774 24.774s-24.774-11.092-24.774-24.774v-575.965c0-13.682 11.092-24.774 24.774-24.774z"/><path style="fill:#72b8ce" d="M1024 1100.875c6.571 0 12.872 2.61 17.518 7.256l135.206 135.207c9.675 9.675 9.675 25.361 0 35.036-9.675 9.674-25.36 9.674-35.036 0L1024 1160.685l-117.688 117.689c-9.675 9.675-25.361 9.675-35.036 0-9.674-9.675-9.674-25.361 0-35.036l135.207-135.207a24.771 24.771 0 0 1 17.517-7.256z"/></svg>